<svg width="17" height="13" viewBox="0 0 17 13" fill="none" xmlns="http://www.w3.org/2000/svg">
<path d="M1.64217 11.2118H8.70985C8.36167 10.5677 8.16439 9.82493 8.16439 9.04158C8.16439 6.9062 9.62088 5.10734 11.5938 4.57931H0V9.56961C0 10.4748 0.736953 11.2118 1.64217 11.2118ZM2.43714 6.60444H4.03288C4.35202 6.60444 4.61315 6.85976 4.61315 7.18471C4.61315 7.50385 4.35202 7.76498 4.03288 7.76498H2.43714C2.118 7.76498 1.85687 7.50385 1.85687 7.18471C1.85687 6.85976 2.118 6.60444 2.43714 6.60444ZM2.43714 8.19438H4.03288C4.35202 8.19438 4.61315 8.4555 4.61315 8.77465C4.61315 9.09379 4.35202 9.35491 4.03288 9.35491H2.43714C2.118 9.35491 1.85687 9.09379 1.85687 8.77465C1.85687 8.4555 2.118 8.19438 2.43714 8.19438ZM14.9594 2.14217C14.9594 1.23695 14.2224 0.5 13.3172 0.5H1.64217C0.736953 0.5 0 1.23695 0 2.14217V3.41877H14.9594V2.14217Z" fill="#777777"/>
<path d="M12.7889 5.58313C10.8798 5.58313 9.32471 7.13247 9.32471 9.04155C9.32471 10.9506 10.8798 12.5 12.7889 12.5C14.6922 12.5 16.2473 10.9506 16.2473 9.04155C16.2473 7.13247 14.6922 5.58313 12.7889 5.58313ZM13.7405 9.62182H12.7889C12.4639 9.62182 12.2086 9.36069 12.2086 9.04155V8.04347C12.2086 7.72432 12.4639 7.4632 12.7889 7.4632C13.1081 7.4632 13.3692 7.72432 13.3692 8.04347V8.46128H13.7405C14.0597 8.46128 14.3208 8.72241 14.3208 9.04155C14.3208 9.36069 14.0597 9.62182 13.7405 9.62182Z" fill="#777777"/>
</svg>
