<svg width="36" height="36" viewBox="0 0 36 36" fill="none" xmlns="http://www.w3.org/2000/svg">
<g clip-path="url(#clip0_1512_11411)">
<path d="M10 10C10.2652 10 10.5196 9.89464 10.7071 9.70711C10.8946 9.51957 11 9.26522 11 9V3C11 2.73478 10.8946 2.48043 10.7071 2.29289C10.5196 2.10536 10.2652 2 10 2C9.73478 2 9.48043 2.10536 9.29289 2.29289C9.10536 2.48043 9 2.73478 9 3V9C9 9.26522 9.10536 9.51957 9.29289 9.70711C9.48043 9.89464 9.73478 10 10 10Z" fill="url(#paint0_linear_1512_11411)"/>
<path d="M26 10C26.2652 10 26.5196 9.89464 26.7071 9.70711C26.8946 9.51957 27 9.26522 27 9V3C27 2.73478 26.8946 2.48043 26.7071 2.29289C26.5196 2.10536 26.2652 2 26 2C25.7348 2 25.4804 2.10536 25.2929 2.29289C25.1054 2.48043 25 2.73478 25 3V9C25 9.26522 25.1054 9.51957 25.2929 9.70711C25.4804 9.89464 25.7348 10 26 10Z" fill="url(#paint1_linear_1512_11411)"/>
<path d="M32.2498 5.99999H28.2498V8.99999C28.2498 9.58347 28.018 10.143 27.6054 10.5556C27.1928 10.9682 26.6332 11.2 26.0498 11.2C25.4663 11.2 24.9067 10.9682 24.4941 10.5556C24.0816 10.143 23.8498 9.58347 23.8498 8.99999V5.99999H12.1998V8.99999C12.1998 9.58347 11.968 10.143 11.5554 10.5556C11.1428 10.9682 10.5832 11.2 9.99977 11.2C9.41629 11.2 8.85671 10.9682 8.44413 10.5556C8.03155 10.143 7.79977 9.58347 7.79977 8.99999V5.99999H3.79977C3.56179 5.99729 3.32569 6.04233 3.10542 6.13246C2.88516 6.22258 2.6852 6.35597 2.51738 6.52472C2.34956 6.69347 2.21729 6.89416 2.12838 7.11492C2.03948 7.33569 1.99574 7.57204 1.99977 7.80999V30.19C1.9958 30.4238 2.03791 30.656 2.12371 30.8735C2.20952 31.091 2.33732 31.2894 2.49983 31.4575C2.66234 31.6256 2.85637 31.76 3.07084 31.8531C3.2853 31.9462 3.51601 31.9961 3.74977 32H32.2498C32.4835 31.9961 32.7142 31.9462 32.9287 31.8531C33.1432 31.76 33.3372 31.6256 33.4997 31.4575C33.6622 31.2894 33.79 31.091 33.8758 30.8735C33.9616 30.656 34.0037 30.4238 33.9998 30.19V7.80999C34.0037 7.57623 33.9616 7.34398 33.8758 7.12649C33.79 6.90901 33.6622 6.71056 33.4997 6.54248C33.3372 6.3744 33.1432 6.23998 32.9287 6.1469C32.7142 6.05382 32.4835 6.0039 32.2498 5.99999ZM25.9398 16.58L16.2698 26.25L10.9998 20.94C10.7663 20.6832 10.6398 20.3469 10.6463 19.9999C10.6527 19.6529 10.7916 19.3214 11.0344 19.0735C11.2772 18.8255 11.6057 18.6798 11.9525 18.6661C12.2993 18.6525 12.6382 18.7719 12.8998 19L16.2798 22.38L23.9998 14.66C24.1265 14.5333 24.2769 14.4327 24.4425 14.3642C24.6081 14.2956 24.7856 14.2603 24.9648 14.2603C25.144 14.2603 25.3214 14.2956 25.487 14.3642C25.6526 14.4327 25.803 14.5333 25.9298 14.66C26.0565 14.7867 26.157 14.9372 26.2256 15.1027C26.2942 15.2683 26.3295 15.4458 26.3295 15.625C26.3295 15.8042 26.2942 15.9817 26.2256 16.1472C26.157 16.3128 26.0565 16.4633 25.9298 16.59L25.9398 16.58Z" fill="url(#paint2_linear_1512_11411)"/>
</g>
<defs>
<linearGradient id="paint0_linear_1512_11411" x1="9.41538" y1="2.49231" x2="12.8158" y2="3.86923" gradientUnits="userSpaceOnUse">
<stop stop-color="#B58ECC"/>
<stop offset="0.792016" stop-color="#7BC8D8"/>
</linearGradient>
<linearGradient id="paint1_linear_1512_11411" x1="25.4154" y1="2.49231" x2="28.8158" y2="3.86923" gradientUnits="userSpaceOnUse">
<stop stop-color="#B58ECC"/>
<stop offset="0.792016" stop-color="#7BC8D8"/>
</linearGradient>
<linearGradient id="paint2_linear_1512_11411" x1="8.64577" y1="7.59988" x2="21.3773" y2="32.9805" gradientUnits="userSpaceOnUse">
<stop stop-color="#B58ECC"/>
<stop offset="0.792016" stop-color="#7BC8D8"/>
</linearGradient>
<clipPath id="clip0_1512_11411">
<rect width="36" height="36" fill="white"/>
</clipPath>
</defs>
</svg>
