<svg width="10" height="8" viewBox="0 0 10 8" fill="none" xmlns="http://www.w3.org/2000/svg">
<path d="M0.999969 3.49998L0.646469 3.85348L0.292969 3.49998L0.646469 3.14648L0.999969 3.49998ZM9.49997 7.49998C9.49997 7.63259 9.44729 7.75977 9.35352 7.85354C9.25975 7.94731 9.13258 7.99998 8.99997 7.99998C8.86736 7.99998 8.74018 7.94731 8.64641 7.85354C8.55265 7.75977 8.49997 7.63259 8.49997 7.49998H9.49997ZM3.14647 6.35348L0.646469 3.85348L1.35347 3.14648L3.85347 5.64648L3.14647 6.35348ZM0.646469 3.14648L3.14647 0.646484L3.85347 1.35348L1.35347 3.85348L0.646469 3.14648ZM0.999969 2.99998H5.99997V3.99998H0.999969V2.99998ZM9.49997 6.49998V7.49998H8.49997V6.49998H9.49997ZM5.99997 2.99998C6.92823 2.99998 7.81846 3.36873 8.47484 4.02511C9.13122 4.68149 9.49997 5.57173 9.49997 6.49998H8.49997C8.49997 5.83694 8.23658 5.20106 7.76774 4.73222C7.29889 4.26338 6.66301 3.99998 5.99997 3.99998V2.99998Z" fill="#777777"/>
</svg>
