<svg width="14" height="15" viewBox="0 0 14 15" fill="none" xmlns="http://www.w3.org/2000/svg">
<g clip-path="url(#clip0_6201_3975)">
<path d="M3.88889 4.38888C3.99203 4.38888 4.09094 4.34791 4.16387 4.27498C4.23681 4.20205 4.27778 4.10313 4.27778 3.99999V1.66666C4.27778 1.56352 4.23681 1.4646 4.16387 1.39167C4.09094 1.31874 3.99203 1.27777 3.88889 1.27777C3.78575 1.27777 3.68683 1.31874 3.6139 1.39167C3.54097 1.4646 3.5 1.56352 3.5 1.66666V3.99999C3.5 4.10313 3.54097 4.20205 3.6139 4.27498C3.68683 4.34791 3.78575 4.38888 3.88889 4.38888Z" fill="black"/>
<path d="M10.1111 4.38888C10.2142 4.38888 10.3131 4.34791 10.386 4.27498C10.459 4.20205 10.4999 4.10313 10.4999 3.99999V1.66666C10.4999 1.56352 10.459 1.4646 10.386 1.39167C10.3131 1.31874 10.2142 1.27777 10.1111 1.27777C10.0079 1.27777 9.909 1.31874 9.83607 1.39167C9.76314 1.4646 9.72217 1.56352 9.72217 1.66666V3.99999C9.72217 4.10313 9.76314 4.20205 9.83607 4.27498C9.909 4.34791 10.0079 4.38888 10.1111 4.38888Z" fill="black"/>
<path d="M12.5418 2.83336H10.9863V4.00002C10.9863 4.22693 10.8961 4.44455 10.7357 4.60499C10.5752 4.76544 10.3576 4.85558 10.1307 4.85558C9.9038 4.85558 9.68619 4.76544 9.52574 4.60499C9.36529 4.44455 9.27516 4.22693 9.27516 4.00002V2.83336H4.7446V4.00002C4.7446 4.22693 4.65446 4.44455 4.49401 4.60499C4.33356 4.76544 4.11595 4.85558 3.88904 4.85558C3.66214 4.85558 3.44452 4.76544 3.28407 4.60499C3.12363 4.44455 3.03349 4.22693 3.03349 4.00002V2.83336H1.47793C1.38539 2.8323 1.29357 2.84982 1.20791 2.88487C1.12225 2.91992 1.04449 2.97179 0.979226 3.03742C0.913963 3.10304 0.862523 3.18109 0.827948 3.26694C0.793374 3.35279 0.776366 3.44471 0.777932 3.53725V12.2406C0.776387 12.3315 0.792766 12.4218 0.826133 12.5064C0.8595 12.591 0.909202 12.6681 0.9724 12.7335C1.0356 12.7989 1.11105 12.8511 1.19446 12.8873C1.27786 12.9235 1.36758 12.9429 1.45849 12.9445H12.5418C12.6327 12.9429 12.7224 12.9235 12.8059 12.8873C12.8893 12.8511 12.9647 12.7989 13.0279 12.7335C13.0911 12.6681 13.1408 12.591 13.1742 12.5064C13.2075 12.4218 13.2239 12.3315 13.2224 12.2406V3.53725C13.2239 3.44634 13.2075 3.35602 13.1742 3.27144C13.1408 3.18687 13.0911 3.10969 13.0279 3.04433C12.9647 2.97896 12.8893 2.92669 12.8059 2.89049C12.7224 2.85429 12.6327 2.83488 12.5418 2.83336ZM10.0879 6.9478L6.32738 10.7084L4.27793 8.64336C4.18714 8.5435 4.13795 8.4127 4.14046 8.27775C4.14296 8.14281 4.19696 8.01392 4.2914 7.9175C4.38584 7.82107 4.51357 7.7644 4.64843 7.75908C4.7833 7.75377 4.91509 7.80022 5.01682 7.88891L6.33127 9.20336L9.33349 6.20114C9.38277 6.15185 9.44128 6.11276 9.50567 6.08609C9.57006 6.05942 9.63907 6.04569 9.70877 6.04569C9.77846 6.04569 9.84748 6.05942 9.91187 6.08609C9.97626 6.11276 10.0348 6.15185 10.084 6.20114C10.1333 6.25042 10.1724 6.30892 10.1991 6.37331C10.2258 6.43771 10.2395 6.50672 10.2395 6.57641C10.2395 6.64611 10.2258 6.71512 10.1991 6.77951C10.1724 6.8439 10.1333 6.90241 10.084 6.95169L10.0879 6.9478Z" fill="black"/>
</g>
<defs>
<clipPath id="clip0_6201_3975">
<rect width="14" height="14" fill="white" transform="translate(0 0.5)"/>
</clipPath>
</defs>
</svg>
