<svg width="26" height="26" viewBox="0 0 26 26" fill="none" xmlns="http://www.w3.org/2000/svg">
<path d="M6.5 0.8125C6.5 0.597012 6.4144 0.390349 6.26202 0.237976C6.10965 0.0856024 5.90299 0 5.6875 0C5.47201 0 5.26535 0.0856024 5.11298 0.237976C4.9606 0.390349 4.875 0.597012 4.875 0.8125V1.625H3.25C2.38805 1.625 1.5614 1.96741 0.951903 2.5769C0.34241 3.1864 0 4.01305 0 4.875L0 6.5H26V4.875C26 4.01305 25.6576 3.1864 25.0481 2.5769C24.4386 1.96741 23.612 1.625 22.75 1.625H21.125V0.8125C21.125 0.597012 21.0394 0.390349 20.887 0.237976C20.7347 0.0856024 20.528 0 20.3125 0C20.097 0 19.8903 0.0856024 19.738 0.237976C19.5856 0.390349 19.5 0.597012 19.5 0.8125V1.625H6.5V0.8125ZM26 22.75V8.125H0V22.75C0 23.612 0.34241 24.4386 0.951903 25.0481C1.5614 25.6576 2.38805 26 3.25 26H22.75C23.612 26 24.4386 25.6576 25.0481 25.0481C25.6576 24.4386 26 23.612 26 22.75ZM20.3125 11.375H21.9375C22.153 11.375 22.3597 11.4606 22.512 11.613C22.6644 11.7653 22.75 11.972 22.75 12.1875V13.8125C22.75 14.028 22.6644 14.2347 22.512 14.387C22.3597 14.5394 22.153 14.625 21.9375 14.625H20.3125C20.097 14.625 19.8903 14.5394 19.738 14.387C19.5856 14.2347 19.5 14.028 19.5 13.8125V12.1875C19.5 11.972 19.5856 11.7653 19.738 11.613C19.8903 11.4606 20.097 11.375 20.3125 11.375Z" fill="url(#paint0_linear_1512_11443)"/>
<defs>
<linearGradient id="paint0_linear_1512_11443" x1="5.4" y1="1.6" x2="19.6" y2="24.6" gradientUnits="userSpaceOnUse">
<stop stop-color="#B58ECC"/>
<stop offset="0.792016" stop-color="#7BC8D8"/>
</linearGradient>
</defs>
</svg>
