<svg width="30" height="28" viewBox="0 0 30 28" fill="none" xmlns="http://www.w3.org/2000/svg">
<g clip-path="url(#clip0_1512_11395)">
<g clip-path="url(#clip1_1512_11395)">
<path d="M0.704102 24.9688C0.704102 26.3647 1.92346 27.5 3.42285 27.5H26.9854C28.4847 27.5 29.7041 26.3647 29.7041 24.9688V8.9375H0.704102V24.9688ZM15.2041 11.4688C19.2016 11.4688 22.4541 14.497 22.4541 18.2188C22.4541 21.9405 19.2016 24.9688 15.2041 24.9688C11.2066 24.9688 7.9541 21.9405 7.9541 18.2188C7.9541 14.497 11.2066 11.4688 15.2041 11.4688Z" fill="url(#paint0_linear_1512_11395)"/>
<path d="M15.2041 24.125C18.7022 24.125 21.5479 21.4756 21.5479 18.2188C21.5479 14.9619 18.7022 12.3125 15.2041 12.3125C11.706 12.3125 8.86035 14.9619 8.86035 18.2188C8.86035 21.4756 11.706 24.125 15.2041 24.125ZM12.4854 17.375H14.2979V15.6875C14.2979 15.4637 14.3933 15.2491 14.5633 15.0909C14.7332 14.9326 14.9637 14.8438 15.2041 14.8438C15.4445 14.8438 15.675 14.9326 15.8449 15.0909C16.0149 15.2491 16.1104 15.4637 16.1104 15.6875V18.2188C16.1104 18.4425 16.0149 18.6571 15.8449 18.8154C15.675 18.9736 15.4445 19.0625 15.2041 19.0625H12.4854C12.245 19.0625 12.0145 18.9736 11.8445 18.8154C11.6746 18.6571 11.5791 18.4425 11.5791 18.2188C11.5791 17.995 11.6746 17.7804 11.8445 17.6221C12.0145 17.4639 12.245 17.375 12.4854 17.375ZM7.9541 6.40625C8.95098 6.40625 9.7666 5.64688 9.7666 4.71875V2.1875C9.7666 1.25937 8.95098 0.5 7.9541 0.5C6.95723 0.5 6.1416 1.25937 6.1416 2.1875V4.71875C6.1416 5.64688 6.95723 6.40625 7.9541 6.40625ZM22.4541 6.40625C23.451 6.40625 24.2666 5.64688 24.2666 4.71875V2.1875C24.2666 1.25937 23.451 0.5 22.4541 0.5C21.4572 0.5 20.6416 1.25937 20.6416 2.1875V4.71875C20.6416 5.64688 21.4572 6.40625 22.4541 6.40625Z" fill="url(#paint1_linear_1512_11395)"/>
<path d="M26.9854 3.03125H25.1729V4.71875C25.1729 6.11473 23.9535 7.25 22.4541 7.25C20.9547 7.25 19.7354 6.11473 19.7354 4.71875V3.03125H17.9229V4.71875C17.9229 6.11473 16.7035 7.25 15.2041 7.25C13.7047 7.25 12.4854 6.11473 12.4854 4.71875V3.03125H10.6729V4.71875C10.6729 6.11473 9.45349 7.25 7.9541 7.25C6.45471 7.25 5.23535 6.11473 5.23535 4.71875V3.03125H3.42285C1.92346 3.03125 0.704102 4.16652 0.704102 5.5625V8.09375H29.7041V5.5625C29.7041 4.16652 28.4847 3.03125 26.9854 3.03125Z" fill="url(#paint2_linear_1512_11395)"/>
<path d="M15.2041 6.40625C16.201 6.40625 17.0166 5.64687 17.0166 4.71875V2.1875C17.0166 1.25937 16.201 0.5 15.2041 0.5C14.2072 0.5 13.3916 1.25937 13.3916 2.1875V4.71875C13.3916 5.64687 14.2072 6.40625 15.2041 6.40625Z" fill="url(#paint3_linear_1512_11395)"/>
</g>
</g>
<defs>
<linearGradient id="paint0_linear_1512_11395" x1="6.72718" y1="10.0798" x2="14.4792" y2="29.6961" gradientUnits="userSpaceOnUse">
<stop stop-color="#B58ECC"/>
<stop offset="0.792016" stop-color="#7BC8D8"/>
</linearGradient>
<linearGradient id="paint1_linear_1512_11395" x1="9.90602" y1="1.95385" x2="24.0046" y2="19.4733" gradientUnits="userSpaceOnUse">
<stop stop-color="#B58ECC"/>
<stop offset="0.792016" stop-color="#7BC8D8"/>
</linearGradient>
<linearGradient id="paint2_linear_1512_11395" x1="6.72718" y1="3.34279" x2="7.38617" y2="9.45716" gradientUnits="userSpaceOnUse">
<stop stop-color="#B58ECC"/>
<stop offset="0.792016" stop-color="#7BC8D8"/>
</linearGradient>
<linearGradient id="paint3_linear_1512_11395" x1="14.1445" y1="0.863462" x2="17.7526" y2="4.4503" gradientUnits="userSpaceOnUse">
<stop stop-color="#B58ECC"/>
<stop offset="0.792016" stop-color="#7BC8D8"/>
</linearGradient>
<clipPath id="clip0_1512_11395">
<rect width="29" height="27" fill="white" transform="translate(0.704102 0.5)"/>
</clipPath>
<clipPath id="clip1_1512_11395">
<rect width="29" height="27" fill="white" transform="translate(0.704102 0.5)"/>
</clipPath>
</defs>
</svg>
