<svg width="14" height="15" viewBox="0 0 14 15" fill="none" xmlns="http://www.w3.org/2000/svg">
<g clip-path="url(#clip0_6201_5515)">
<path d="M0 13.1875C0 13.9113 0.588656 14.5 1.3125 14.5H12.6875C13.4113 14.5 14 13.9113 14 13.1875V4.875H0V13.1875ZM7 6.1875C8.92981 6.1875 10.5 7.75769 10.5 9.6875C10.5 11.6173 8.92981 13.1875 7 13.1875C5.07019 13.1875 3.5 11.6173 3.5 9.6875C3.5 7.75769 5.07019 6.1875 7 6.1875Z" fill="#777777"/>
<path d="M7 12.75C8.68875 12.75 10.0625 11.3763 10.0625 9.6875C10.0625 7.99875 8.68875 6.625 7 6.625C5.31125 6.625 3.9375 7.99875 3.9375 9.6875C3.9375 11.3763 5.31125 12.75 7 12.75ZM5.6875 9.25H6.5625V8.375C6.5625 8.25897 6.60859 8.14769 6.69064 8.06564C6.77269 7.98359 6.88397 7.9375 7 7.9375C7.11603 7.9375 7.22731 7.98359 7.30936 8.06564C7.39141 8.14769 7.4375 8.25897 7.4375 8.375V9.6875C7.4375 9.80353 7.39141 9.91481 7.30936 9.99686C7.22731 10.0789 7.11603 10.125 7 10.125H5.6875C5.57147 10.125 5.46019 10.0789 5.37814 9.99686C5.29609 9.91481 5.25 9.80353 5.25 9.6875C5.25 9.57147 5.29609 9.46019 5.37814 9.37814C5.46019 9.29609 5.57147 9.25 5.6875 9.25ZM3.5 3.5625C3.98125 3.5625 4.375 3.16875 4.375 2.6875V1.375C4.375 0.89375 3.98125 0.5 3.5 0.5C3.01875 0.5 2.625 0.89375 2.625 1.375V2.6875C2.625 3.16875 3.01875 3.5625 3.5 3.5625ZM10.5 3.5625C10.9812 3.5625 11.375 3.16875 11.375 2.6875V1.375C11.375 0.89375 10.9812 0.5 10.5 0.5C10.0188 0.5 9.625 0.89375 9.625 1.375V2.6875C9.625 3.16875 10.0188 3.5625 10.5 3.5625Z" fill="#777777"/>
<path d="M12.6875 1.8125H11.8125V2.6875C11.8125 3.41134 11.2238 4 10.5 4C9.77616 4 9.1875 3.41134 9.1875 2.6875V1.8125H8.3125V2.6875C8.3125 3.41134 7.72384 4 7 4C6.27616 4 5.6875 3.41134 5.6875 2.6875V1.8125H4.8125V2.6875C4.8125 3.41134 4.22384 4 3.5 4C2.77616 4 2.1875 3.41134 2.1875 2.6875V1.8125H1.3125C0.588656 1.8125 0 2.40116 0 3.125V4.4375H14V3.125C14 2.40116 13.4113 1.8125 12.6875 1.8125Z" fill="#777777"/>
<path d="M7 3.5625C7.48125 3.5625 7.875 3.16875 7.875 2.6875V1.375C7.875 0.89375 7.48125 0.5 7 0.5C6.51875 0.5 6.125 0.89375 6.125 1.375V2.6875C6.125 3.16875 6.51875 3.5625 7 3.5625Z" fill="#777777"/>
</g>
<defs>
<clipPath id="clip0_6201_5515">
<rect width="14" height="14" fill="white" transform="translate(0 0.5)"/>
</clipPath>
</defs>
</svg>
