<svg width="142" height="65" viewBox="0 0 142 65" fill="none" xmlns="http://www.w3.org/2000/svg">
<g filter="url(#filter0_ddii_1740_10515)">
<g clip-path="url(#clip0_1740_10515)">
<rect x="5" y="7" width="131" height="52" rx="26" fill="#05649A"/>
<ellipse cx="36.5585" cy="32.8207" rx="57.3793" ry="46.9793" fill="white" fill-opacity="0.1"/>
<ellipse cx="34.7658" cy="32.8207" rx="45.9035" ry="40.5241" fill="white" fill-opacity="0.1"/>
<circle cx="29.3864" cy="32.8208" r="36.5793" fill="white" fill-opacity="0.1"/>
<path fill-rule="evenodd" clip-rule="evenodd" d="M144.862 19.1931C144.862 26.7655 140.219 33.2191 133.71 35.6898C133.337 37.3 132.644 38.7957 131.696 40.1157C131.701 40.291 131.702 40.4671 131.7 40.644C131.606 47.7361 125.405 53.4046 117.85 53.3048C116.969 53.2932 116.109 53.2037 115.277 53.0435C112.756 56.2959 108.647 58.3864 104.032 58.3255C100.499 58.2788 97.2948 56.9788 94.8945 54.8825C92.408 57.0601 89.0561 58.374 85.3841 58.3255C82.6882 58.2899 80.1841 57.5247 78.0824 56.233C75.5441 59.3015 71.5554 61.2534 67.0945 61.1945C63.8248 61.1513 60.8373 60.035 58.5077 58.2076C56.0386 61.7857 51.7234 64.1279 46.8431 64.0634C42.5603 64.0069 38.7615 62.109 36.2912 59.1838C33.7443 61.9972 29.9281 63.7608 25.6845 63.7048C18.1445 63.6053 12.1048 57.7988 12.1731 50.7264C10.0521 51.9386 7.55276 52.6228 4.88448 52.5876C-2.671 52.4878 -8.72001 46.6576 -8.62637 39.5655C-8.53273 32.4734 -2.3319 26.805 5.22358 26.9048C12.7636 27.0043 18.8033 32.8108 18.7349 39.8832C20.856 38.671 23.3553 37.9868 26.0236 38.022C30.3064 38.0786 34.1052 39.9764 36.5755 42.9017C39.1223 40.0882 42.9386 38.3246 47.1822 38.3806C50.4518 38.4238 53.4393 39.5401 55.769 41.3675C58.2381 37.7894 62.5533 35.4472 67.4336 35.5117C70.1295 35.5473 72.6336 36.3124 74.7353 37.6042C77.2736 34.5357 81.2623 32.5838 85.7232 32.6427C89.2568 32.6894 92.4609 33.9894 94.8612 36.0857C97.3476 33.9081 100.7 32.5942 104.372 32.6427C105.152 32.653 105.916 32.7244 106.658 32.8519C106.659 32.8186 106.659 32.7852 106.659 32.7517C106.709 28.9858 108.481 25.6212 111.263 23.3086C110.956 21.9885 110.793 20.6104 110.793 19.1931C110.793 9.48813 118.42 1.6207 127.828 1.6207C137.236 1.6207 144.862 9.48813 144.862 19.1931Z" fill="white" fill-opacity="0.6"/>
<path fill-rule="evenodd" clip-rule="evenodd" d="M138.997 35.8533C145.742 33.5143 150.6 26.9389 150.6 19.1931C150.6 9.48813 142.973 1.6207 133.566 1.6207C124.158 1.6207 116.531 9.48813 116.531 19.1931C116.531 21.6452 117.018 23.9799 117.897 26.1001C114.203 28.3557 111.739 32.2458 111.68 36.6966C111.671 37.3796 111.719 38.0508 111.82 38.7064C109.841 37.6165 107.544 36.9786 105.088 36.9462C101.534 36.8992 98.2797 38.1288 95.8197 40.1825C94.4538 39.731 92.9881 39.4767 91.4608 39.4565C87.1259 39.3993 83.237 41.2408 80.6915 44.1606C79.6615 43.9129 78.5843 43.7746 77.4746 43.7599C75.8913 43.739 74.3674 43.9715 72.9468 44.4172C71.3605 43.7852 69.6203 43.4255 67.7919 43.4013C62.6609 43.3336 58.1547 45.926 55.7616 49.818C53.6531 48.5137 51.1366 47.7406 48.4263 47.7048C44.1827 47.6487 40.3665 49.4123 37.8196 52.2258C35.3493 49.3006 31.5506 47.4027 27.2677 47.3462C24.5994 47.3109 22.1001 47.9951 19.9791 49.2073C20.0474 42.135 14.0077 36.3285 6.46772 36.2289C-1.08775 36.1292 -7.28859 41.7976 -7.38223 48.8897C-7.47587 55.9818 -1.42686 61.8119 6.12862 61.9117C8.7969 61.9469 11.2962 61.2627 13.4173 60.0505C13.3489 67.1229 19.3886 72.9294 26.9286 73.0289C31.1722 73.085 34.9885 71.3214 37.5353 68.5079C40.0056 71.4332 43.8044 73.331 48.0872 73.3876C53.2182 73.4553 57.7244 70.8629 60.1174 66.9709C62.226 68.2752 64.7425 69.0483 67.4528 69.0841C69.0361 69.105 70.56 68.8726 71.9806 68.4268C73.5669 69.0589 75.3071 69.4186 77.1355 69.4427C81.4704 69.5 85.3594 67.6584 87.9048 64.7387C88.9348 64.9864 90.012 65.1246 91.1217 65.1393C94.676 65.1862 97.9305 63.9567 100.39 61.9029C101.756 62.3545 103.222 62.6088 104.749 62.6289C107.448 62.6646 109.974 61.9643 112.11 60.7261C114.145 61.9028 116.533 62.5951 119.094 62.6289C126.65 62.7287 132.85 57.0603 132.944 49.9682C132.954 49.1925 132.891 48.432 132.76 47.6923C136.49 45.4426 138.982 41.5338 139.041 37.0578C139.046 36.6519 139.031 36.2501 138.997 35.8533Z" fill="white"/>
</g>
</g>
<defs>
<filter id="filter0_ddii_1740_10515" x="0.696552" y="0.186207" width="140.324" height="64.1931" filterUnits="userSpaceOnUse" color-interpolation-filters="sRGB">
<feFlood flood-opacity="0" result="BackgroundImageFix"/>
<feColorMatrix in="SourceAlpha" type="matrix" values="0 0 0 0 0 0 0 0 0 0 0 0 0 0 0 0 0 0 127 0" result="hardAlpha"/>
<feOffset dx="1.07586" dy="2.51034"/>
<feGaussianBlur stdDeviation="1.43448"/>
<feComposite in2="hardAlpha" operator="out"/>
<feColorMatrix type="matrix" values="0 0 0 0 0 0 0 0 0 0 0 0 0 0 0 0 0 0 0.25 0"/>
<feBlend mode="normal" in2="BackgroundImageFix" result="effect1_dropShadow_1740_10515"/>
<feColorMatrix in="SourceAlpha" type="matrix" values="0 0 0 0 0 0 0 0 0 0 0 0 0 0 0 0 0 0 127 0" result="hardAlpha"/>
<feOffset dx="0.358621" dy="-2.15172"/>
<feGaussianBlur stdDeviation="2.33103"/>
<feComposite in2="hardAlpha" operator="out"/>
<feColorMatrix type="matrix" values="0 0 0 0 0 0 0 0 0 0 0 0 0 0 0 0 0 0 0.25 0"/>
<feBlend mode="normal" in2="effect1_dropShadow_1740_10515" result="effect2_dropShadow_1740_10515"/>
<feBlend mode="normal" in="SourceGraphic" in2="effect2_dropShadow_1740_10515" result="shape"/>
<feColorMatrix in="SourceAlpha" type="matrix" values="0 0 0 0 0 0 0 0 0 0 0 0 0 0 0 0 0 0 127 0" result="hardAlpha"/>
<feOffset dy="2.51034"/>
<feGaussianBlur stdDeviation="1.61379"/>
<feComposite in2="hardAlpha" operator="arithmetic" k2="-1" k3="1"/>
<feColorMatrix type="matrix" values="0 0 0 0 0 0 0 0 0 0 0 0 0 0 0 0 0 0 0.25 0"/>
<feBlend mode="normal" in2="shape" result="effect3_innerShadow_1740_10515"/>
<feColorMatrix in="SourceAlpha" type="matrix" values="0 0 0 0 0 0 0 0 0 0 0 0 0 0 0 0 0 0 127 0" result="hardAlpha"/>
<feOffset dy="0.358621"/>
<feGaussianBlur stdDeviation="2.68966"/>
<feComposite in2="hardAlpha" operator="arithmetic" k2="-1" k3="1"/>
<feColorMatrix type="matrix" values="0 0 0 0 0 0 0 0 0 0 0 0 0 0 0 0 0 0 0.25 0"/>
<feBlend mode="normal" in2="effect3_innerShadow_1740_10515" result="effect4_innerShadow_1740_10515"/>
</filter>
<clipPath id="clip0_1740_10515">
<rect x="5" y="7" width="131" height="52" rx="26" fill="white"/>
</clipPath>
</defs>
</svg>
