<svg width="16" height="15" viewBox="0 0 16 15" fill="none" xmlns="http://www.w3.org/2000/svg">
<path d="M14.6185 5.54815H11.4427C11.0505 5.54815 10.7593 5.77543 10.5881 6.01622C10.3589 5.75283 10.0372 5.58751 9.68962 5.55437L8.34472 2.87989C8.17965 2.55155 8.26082 2.1774 8.52588 2.04388L11.5026 0.54725C11.7678 0.414035 12.1165 0.572133 12.2816 0.900469L13.1062 2.54048C13.1456 2.61907 13.1092 2.71375 13.0372 2.76427C12.6638 3.02676 12.5375 3.61637 12.8009 4.14013C13.0643 4.66389 13.613 4.91439 14.0461 4.77116C14.1297 4.74354 14.2276 4.77055 14.2671 4.84915L14.6185 5.54815ZM9.00337 5.54815H1.55664L6.93321 2.84484C7.24653 2.6872 7.63449 2.82557 7.79957 3.15406L9.00337 5.54815ZM11.4427 14.5C11.1565 14.5 10.9245 14.1603 10.9245 13.7414V6.91369C10.9245 6.49477 11.1565 6.15505 11.4427 6.15505H14.6547C14.9409 6.15505 15.1729 6.49477 15.1729 6.91369V8.8752C15.1729 8.96396 15.0959 9.03224 15.0087 9.04863C14.5769 9.1295 14.217 9.66312 14.217 10.3275C14.217 10.9919 14.5769 11.5256 15.0087 11.6066C15.0959 11.6228 15.1729 11.6911 15.1729 11.7799V13.7414C15.1729 14.1603 14.9409 14.5 14.6547 14.5H11.4427Z" fill="black"/>
<path fill-rule="evenodd" clip-rule="evenodd" d="M9.55876 14.4997C9.75996 14.4997 9.95292 14.4198 10.0952 14.2775C10.2375 14.1353 10.3174 13.9423 10.3174 13.7411V6.91342C10.3174 6.71222 10.2375 6.51925 10.0952 6.37698C9.95292 6.23471 9.75996 6.15479 9.55876 6.15479H0.758632C0.55743 6.15479 0.364469 6.23471 0.222198 6.37698C0.079927 6.51925 0 6.71222 0 6.91342V8.87903C0 8.96627 0.073739 9.0347 0.16083 9.04077C0.820536 9.0869 1.36554 9.64919 1.36554 10.3273C1.36554 11.0055 0.820536 11.5676 0.16083 11.6139C0.073739 11.62 0 11.6882 0 11.7755V13.7411C0 13.9423 0.079927 14.1353 0.222198 14.2775C0.364469 14.4198 0.55743 14.4997 0.758632 14.4997H9.55876ZM4.09661 9.03758C4.09661 8.9571 4.12858 8.87992 4.18549 8.82301C4.2424 8.7661 4.31958 8.73413 4.40006 8.73413H6.75182C6.8323 8.73413 6.90949 8.7661 6.96639 8.82301C7.0233 8.87992 7.05527 8.9571 7.05527 9.03758C7.05527 9.11807 7.0233 9.19525 6.96639 9.25216C6.90949 9.30907 6.8323 9.34104 6.75182 9.34104H4.40006C4.31958 9.34104 4.2424 9.30907 4.18549 9.25216C4.12858 9.19525 4.09661 9.11807 4.09661 9.03758Z" fill="black"/>
</svg>
