<svg width="14" height="15" viewBox="0 0 14 15" fill="none" xmlns="http://www.w3.org/2000/svg">
<g clip-path="url(#clip0_6201_3326)">
<path d="M10.9102 1.94922H10.0898H8.81562C8.87031 2.23359 9.11094 2.44141 9.40625 2.44141H9.67969V3.26172H9.40625C8.66797 3.26172 8.0582 2.68477 7.98984 1.94922H7.62891H6.35469C6.40937 2.23359 6.65 2.44141 6.94531 2.44141H7.21875V3.26172H6.94531C6.20703 3.26172 5.59727 2.68477 5.52891 1.94922H5.16797H3.89375C3.94844 2.23359 4.18906 2.44141 4.48438 2.44141H4.75781V3.26172H4.48438C3.74609 3.26172 3.13633 2.68477 3.06797 1.94922H2.32422V4H11.6758V1.94922H10.9102Z" fill="#777777"/>
<path d="M4.48438 2.98828C3.85547 2.98828 3.33594 2.46055 3.33594 1.8125C3.33594 1.16445 3.87734 0.664062 4.52539 0.664062C5.17344 0.664062 5.71484 1.21094 5.71484 1.86719H5.44141C5.44141 1.34766 5.03672 0.9375 4.53906 0.9375C4.04141 0.9375 3.60938 1.32852 3.60938 1.82617C3.60938 2.32383 3.99219 2.71484 4.48438 2.71484V2.98828ZM7 2.98828C6.35195 2.98828 5.82422 2.46055 5.82422 1.8125C5.82422 1.16445 6.35195 0.636719 7 0.636719C7.64805 0.636719 8.17578 1.16445 8.17578 1.8125H7.90234C7.90234 1.31484 7.49766 0.910156 7 0.910156C6.50234 0.910156 6.09766 1.31484 6.09766 1.8125C6.09766 2.31016 6.50234 2.71484 7 2.71484V2.98828ZM9.46094 2.98828C8.81289 2.98828 8.28516 2.46055 8.28516 1.8125C8.28516 1.16445 8.81289 0.636719 9.46094 0.636719C10.109 0.636719 10.6367 1.16445 10.6367 1.8125H10.3633C10.3633 1.31484 9.95859 0.910156 9.46094 0.910156C8.96328 0.910156 8.55859 1.31484 8.55859 1.8125C8.55859 2.31016 8.96328 2.71484 9.46094 2.71484V2.98828Z" fill="#777777"/>
<path d="M4.86719 5.94141H3.63672V7.17188H4.86719V5.94141Z" fill="#777777"/>
<path d="M2.32422 4.27349V14.3633H10.0816C9.17109 13.9204 8.54492 12.9879 8.54492 11.9079C8.54492 10.8196 9.1875 9.87622 10.1117 9.43872H6.07031V9.16528H10.5V9.29106C10.7461 9.21724 11.0031 9.17895 11.2738 9.17895C11.4105 9.17895 11.5445 9.18989 11.6785 9.20903V4.27075H2.32422V4.27349ZM5.14062 10.0704C5.14062 10.1469 5.08047 10.2071 5.00391 10.2071H3.5C3.42344 10.2071 3.36328 10.1469 3.36328 10.0704V8.56645C3.36328 8.48989 3.42344 8.42974 3.5 8.42974H5.00391C5.08047 8.42974 5.14062 8.48989 5.14062 8.56645V10.0704ZM5.14062 7.30864C5.14062 7.38521 5.08047 7.44536 5.00391 7.44536H3.5C3.42344 7.44536 3.36328 7.38521 3.36328 7.30864V5.80474C3.36328 5.72817 3.42344 5.66802 3.5 5.66802H5.00391C5.08047 5.66802 5.14062 5.72817 5.14062 5.80474V7.30864ZM10.5 6.70708H6.07031V6.43364H10.5V6.70708Z" fill="#777777"/>
<path d="M4.86719 8.70312H3.63672V9.93359H4.86719V8.70312Z" fill="#777777"/>
<path d="M11.2738 9.45508C9.92031 9.45508 8.81836 10.557 8.81836 11.9105C8.81836 13.2641 9.92031 14.366 11.2738 14.366C12.6273 14.366 13.7293 13.2641 13.7293 11.9105C13.7293 10.557 12.6246 9.45508 11.2738 9.45508ZM13.084 12.3125H11.2738C11.0469 12.3125 10.8555 12.1348 10.8555 11.9078V10.0977C10.8555 10.0211 10.9238 9.96094 11.0004 9.96094H11.5473C11.6238 9.96094 11.6785 10.0238 11.6785 10.0977V11.4922H13.0867C13.1633 11.4922 13.2098 11.5605 13.2098 11.6371V12.184C13.207 12.2578 13.1578 12.3125 13.084 12.3125Z" fill="#777777"/>
<path d="M11.4023 11.6371V10.2344H11.1289V11.9105C11.1289 11.9871 11.1973 12.0418 11.2738 12.0418H12.9336V11.7684H11.5445C11.4707 11.7656 11.4023 11.7109 11.4023 11.6371Z" fill="#777777"/>
</g>
<defs>
<clipPath id="clip0_6201_3326">
<rect width="14" height="14" fill="white" transform="translate(0 0.5)"/>
</clipPath>
</defs>
</svg>
