<svg width="36" height="36" viewBox="0 0 36 36" fill="none" xmlns="http://www.w3.org/2000/svg">
<path d="M28.0547 3.72656H25.9453H22.6687C22.8094 4.45781 23.4281 4.99219 24.1875 4.99219H24.8906V7.10156H24.1875C22.2891 7.10156 20.7211 5.61797 20.5453 3.72656H19.6172H16.3406C16.4812 4.45781 17.1 4.99219 17.8594 4.99219H18.5625V7.10156H17.8594C15.9609 7.10156 14.393 5.61797 14.2172 3.72656H13.2891H10.0125C10.1531 4.45781 10.7719 4.99219 11.5312 4.99219H12.2344V7.10156H11.5312C9.63281 7.10156 8.06484 5.61797 7.88906 3.72656H5.97656V9H30.0234V3.72656H28.0547Z" fill="url(#paint0_linear_1512_11425)"/>
<path d="M11.5312 6.39844C9.91406 6.39844 8.57812 5.04141 8.57812 3.375C8.57812 1.70859 9.97031 0.421875 11.6367 0.421875C13.3031 0.421875 14.6953 1.82812 14.6953 3.51562H13.9922C13.9922 2.17969 12.9516 1.125 11.6719 1.125C10.3922 1.125 9.28125 2.13047 9.28125 3.41016C9.28125 4.68984 10.2656 5.69531 11.5312 5.69531V6.39844ZM18 6.39844C16.3336 6.39844 14.9766 5.04141 14.9766 3.375C14.9766 1.70859 16.3336 0.351562 18 0.351562C19.6664 0.351562 21.0234 1.70859 21.0234 3.375H20.3203C20.3203 2.09531 19.2797 1.05469 18 1.05469C16.7203 1.05469 15.6797 2.09531 15.6797 3.375C15.6797 4.65469 16.7203 5.69531 18 5.69531V6.39844ZM24.3281 6.39844C22.6617 6.39844 21.3047 5.04141 21.3047 3.375C21.3047 1.70859 22.6617 0.351562 24.3281 0.351562C25.9945 0.351562 27.3516 1.70859 27.3516 3.375H26.6484C26.6484 2.09531 25.6078 1.05469 24.3281 1.05469C23.0484 1.05469 22.0078 2.09531 22.0078 3.375C22.0078 4.65469 23.0484 5.69531 24.3281 5.69531V6.39844Z" fill="url(#paint1_linear_1512_11425)"/>
<path d="M12.5156 13.9922H9.35156V17.1562H12.5156V13.9922Z" fill="url(#paint2_linear_1512_11425)"/>
<path d="M5.97656 9.70314V35.6485H25.9242C23.5828 34.5094 21.9727 32.1117 21.9727 29.3344C21.9727 26.536 23.625 24.1102 26.0016 22.9852H15.6094V22.282H27V22.6055C27.6328 22.4156 28.2937 22.3172 28.9898 22.3172C29.3414 22.3172 29.6859 22.3453 30.0305 22.3945V9.69611H5.97656V9.70314ZM13.2188 24.6094C13.2188 24.8063 13.0641 24.9609 12.8672 24.9609H9C8.80312 24.9609 8.64844 24.8063 8.64844 24.6094V20.7422C8.64844 20.5453 8.80312 20.3906 9 20.3906H12.8672C13.0641 20.3906 13.2188 20.5453 13.2188 20.7422V24.6094ZM13.2188 17.5078C13.2188 17.7047 13.0641 17.8594 12.8672 17.8594H9C8.80312 17.8594 8.64844 17.7047 8.64844 17.5078V13.6406C8.64844 13.4438 8.80312 13.2891 9 13.2891H12.8672C13.0641 13.2891 13.2188 13.4438 13.2188 13.6406V17.5078ZM27 15.9609H15.6094V15.2578H27V15.9609Z" fill="url(#paint3_linear_1512_11425)"/>
<path d="M12.5156 21.0938H9.35156V24.2578H12.5156V21.0938Z" fill="url(#paint4_linear_1512_11425)"/>
<path d="M28.9898 23.0273C25.5094 23.0273 22.6758 25.8609 22.6758 29.3414C22.6758 32.8219 25.5094 35.6555 28.9898 35.6555C32.4703 35.6555 35.3039 32.8219 35.3039 29.3414C35.3039 25.8609 32.4633 23.0273 28.9898 23.0273ZM33.6445 30.375H28.9898C28.4062 30.375 27.9141 29.918 27.9141 29.3344V24.6797C27.9141 24.4828 28.0898 24.3281 28.2867 24.3281H29.693C29.8898 24.3281 30.0305 24.4898 30.0305 24.6797V28.2656H33.6516C33.8484 28.2656 33.968 28.4414 33.968 28.6383V30.0445C33.9609 30.2344 33.8344 30.375 33.6445 30.375Z" fill="url(#paint5_linear_1512_11425)"/>
<path d="M29.3203 28.6383V25.0312H28.6172V29.3414C28.6172 29.5383 28.793 29.6789 28.9898 29.6789H33.2578V28.9758H29.6859C29.4961 28.9688 29.3203 28.8281 29.3203 28.6383Z" fill="url(#paint6_linear_1512_11425)"/>
<defs>
<linearGradient id="paint0_linear_1512_11425" x1="10.9709" y1="4.05108" x2="11.8276" y2="10.3782" gradientUnits="userSpaceOnUse">
<stop stop-color="#B58ECC"/>
<stop offset="0.792016" stop-color="#7BC8D8"/>
</linearGradient>
<linearGradient id="paint1_linear_1512_11425" x1="12.4772" y1="0.723678" x2="13.8905" y2="7.83074" gradientUnits="userSpaceOnUse">
<stop stop-color="#B58ECC"/>
<stop offset="0.792016" stop-color="#7BC8D8"/>
</linearGradient>
<linearGradient id="paint2_linear_1512_11425" x1="10.0087" y1="14.1869" x2="11.7368" y2="16.9859" gradientUnits="userSpaceOnUse">
<stop stop-color="#B58ECC"/>
<stop offset="0.792016" stop-color="#7BC8D8"/>
</linearGradient>
<linearGradient id="paint3_linear_1512_11425" x1="10.9724" y1="11.2932" x2="25.6025" y2="33.2565" gradientUnits="userSpaceOnUse">
<stop stop-color="#B58ECC"/>
<stop offset="0.792016" stop-color="#7BC8D8"/>
</linearGradient>
<linearGradient id="paint4_linear_1512_11425" x1="10.0087" y1="21.2885" x2="11.7368" y2="24.0874" gradientUnits="userSpaceOnUse">
<stop stop-color="#B58ECC"/>
<stop offset="0.792016" stop-color="#7BC8D8"/>
</linearGradient>
<linearGradient id="paint5_linear_1512_11425" x1="25.2985" y1="23.8045" x2="32.1954" y2="34.9755" gradientUnits="userSpaceOnUse">
<stop stop-color="#B58ECC"/>
<stop offset="0.792016" stop-color="#7BC8D8"/>
</linearGradient>
<linearGradient id="paint6_linear_1512_11425" x1="29.581" y1="25.3173" x2="32.1211" y2="29.4252" gradientUnits="userSpaceOnUse">
<stop stop-color="#B58ECC"/>
<stop offset="0.792016" stop-color="#7BC8D8"/>
</linearGradient>
</defs>
</svg>
